<svg width="100" height="100" viewBox="0 0 100 100" fill="none" xmlns="http://www.w3.org/2000/svg">
    <rect width="100" height="100" rx="4" fill="white"/>
    <path d="M8.33337 16.6667H91.6667V33.3333H8.33337V16.6667Z" fill="#160B34" fill-opacity="0.2"/>
    <path fill-rule="evenodd" clip-rule="evenodd" d="M4.16663 25C4.16663 18.0964 9.76307 12.5 16.6666 12.5H83.3333C90.2369 12.5 95.8333 18.0964 95.8333 25V33.3333C95.8333 35.6345 93.9678 37.5 91.6666 37.5V75C91.6666 81.9036 86.0702 87.5 79.1666 87.5H20.8333C13.9297 87.5 8.33329 81.9036 8.33329 75V37.5C6.03211 37.5 4.16663 35.6345 4.16663 33.3333V25ZM16.6666 37.5H83.3333V75C83.3333 77.3012 81.4678 79.1667 79.1666 79.1667H20.8333C18.5321 79.1667 16.6666 77.3012 16.6666 75V37.5ZM87.5 29.1667H12.5V25C12.5 22.6988 14.3654 20.8333 16.6666 20.8333H83.3333C85.6345 20.8333 87.5 22.6988 87.5 25V29.1667ZM37.5 50C35.1988 50 33.3333 51.8655 33.3333 54.1667C33.3333 56.4679 35.1988 58.3333 37.5 58.3333H62.5C64.8011 58.3333 66.6666 56.4679 66.6666 54.1667C66.6666 51.8655 64.8011 50 62.5 50H37.5Z" fill="#160B34"/>
</svg>
