<svg width="24" height="24" viewBox="0 0 24 24" fill="currentColor" xmlns="http://www.w3.org/2000/svg">
<path fill-rule="evenodd" clip-rule="evenodd" d="M20.531 3.417C25.087 7.974 25.087 15.36 20.531 19.917C15.974 24.473 8.58801 24.473 4.03101 19.917C-0.524986 15.36 -0.524986 7.974 4.03101 3.417C8.58801 -1.139 15.974 -1.139 20.531 3.417ZM9.27602 11.667L12.281 8.66198L15.286 11.667L12.281 14.672L9.27602 11.667ZM7.86203 13.081C7.08103 12.3 7.08103 11.034 7.86203 10.253L10.867 7.24798C11.648 6.46698 12.914 6.46698 13.695 7.24798L16.7 10.253C17.481 11.034 17.481 12.3 16.7 13.081L13.695 16.086C12.914 16.867 11.648 16.867 10.867 16.086L7.86203 13.081Z" />
</svg>
